# xmcd CD database file
#
# Track frame offsets:
#	182
#	9872
#	23135
#	32675
#	44720
#	55777
#	65002
#	72325
#	88897
#	105247
#	122822
#	140455
#	151617
#	163925
#	172842
#	185467
#	196435
#	210577
#	224030
#
# Disc length: 3321 seconds
#
# Revision: 4
# Processed by: cddbd v1.4PL0 Copyright (c) Steve Scherf et al.
# Submitted via: CDex 1.50
#
DISCID=0c0cf713
DTITLE=Modrotisk - Modrotisk
DYEAR=1994
DGENRE=Bluegrass
TTITLE0=Ja s tebou byvam rad/I'm Satisfied With You
TTITLE1=You Plant Your Fields
TTITLE2=Used To Be To You
TTITLE3=I'm Ready To Go
TTITLE4=Slysim zvony znit/Wicked Path Of Sin
TTITLE5=Smutna vila/Ain't Nobody Crying But Me
TTITLE6=The Fastest Harp In the South
TTITLE7=Premitani/Dancing With Angels
TTITLE8=Give Us A Happy Home
TTITLE9=Bye Bye Blues
TTITLE10=Bluegrass Medley
TTITLE11=Znameni dobra/Callin' Baton Rouge
TTITLE12=Kratky rana/White Freightliner Blues
TTITLE13=Going Up On The Mountain
TTITLE14=Way Downtown
TTITLE15=The Grass That I'm playing Is Really Blue
TTITLE16=Good Woman's Love
TTITLE17=Malir a dabluv obraz/Saw You Running
TTITLE18=Knockin' On Heaven's Door
EXTD=Modrotisk are:\nTomas Drahokoupil - el. bass, vocal\nLubomir Herman - guitar, vocal, harmonica\nJaroslav Zanta - banjo, vocal\nKarel Schreiber- fiddle, vocal, guitar\nOto Turek - mandolin, vocal, guitar\n\nProduced by Lubomir Herman\nRecorded at EKO
EXTD=P STUDIO Decin, April 1993\nEngineered by Jan Mirovsky\nRecording Director Karel Polacek\nMixed by Oto Turek, Lubomir Herman\nMastered by studio LARGO Praha, Vladimir Papez, Lubomir Herman\nPhotography Josef honzik\nDesign by Ilona Psohlavcova\nRele
EXTD=ased by Gramofonove zavody Lodenice (p)1994 YEAR: 1994
EXTT0=
EXTT1=
EXTT2=
EXTT3=
EXTT4=
EXTT5=
EXTT6=
EXTT7=
EXTT8=
EXTT9=
EXTT10=
EXTT11=
EXTT12=
EXTT13=
EXTT14=
EXTT15=
EXTT16=
EXTT17=
EXTT18=
PLAYORDER=
